<?xml version="1.0" standalone="no"?>
<!DOCTYPE svg PUBLIC "-//W3C//DTD SVG 20010904//EN"
 "http://www.w3.org/TR/2001/REC-SVG-20010904/DTD/svg10.dtd">
<svg version="1.0" xmlns="http://www.w3.org/2000/svg"
 width="300.000000pt" height="300.000000pt" viewBox="0 0 300.000000 300.000000"
 preserveAspectRatio="xMidYMid meet">
<metadata>
Created by potrace 1.14, written by Peter Selinger 2001-2017
</metadata>
<g transform="translate(0.000000,300.000000) scale(0.100000,-0.100000)"
fill="#000000" stroke="none">
<path d="M0 1500 l0 -1500 1500 0 1500 0 0 1500 0 1500 -1500 0 -1500 0 0
-1500z m2375 765 c146 -39 254 -124 294 -230 31 -82 27 -207 -9 -280 -31 -64
-103 -136 -170 -170 l-53 -27 56 -23 c121 -49 206 -137 242 -251 27 -86 17
-212 -23 -298 -96 -204 -322 -289 -727 -272 -88 3 -172 9 -188 12 l-27 6 2
761 3 761 31 8 c117 30 461 32 569 3z m-1355 12 c0 -2 117 -347 260 -766 143
-419 260 -769 260 -777 0 -11 -20 -14 -104 -14 l-104 0 -82 245 -83 245 -275
-2 -275 -3 -81 -240 -81 -240 -102 -3 c-57 -1 -103 0 -103 4 0 5 499 1472 521
1532 8 21 13 22 129 22 66 0 120 -2 120 -3z"/>
<path d="M2003 2124 l-23 -5 0 -251 0 -251 144 5 c140 4 146 5 212 39 115 57
166 153 144 271 -15 79 -48 121 -125 159 -64 31 -72 33 -198 35 -73 1 -142 0
-154 -2z"/>
<path d="M1980 1177 l0 -296 47 -7 c73 -11 231 2 305 25 47 15 81 34 116 66
64 57 87 114 86 210 -1 59 -6 81 -30 125 -61 113 -165 158 -386 167 l-138 6 0
-296z"/>
<path d="M887 2080 c-4 -8 -15 -51 -26 -95 -11 -44 -61 -200 -110 -347 l-89
-268 229 0 c126 0 229 4 229 8 0 5 -39 121 -86 258 -47 137 -98 296 -114 354
-15 58 -30 98 -33 90z"/>
</g>
</svg>
